<?xml version="1.0" encoding="UTF-8" standalone="no"?>
<svg width="49px" height="49px" viewBox="0 0 49 49" version="1.1" xmlns="http://www.w3.org/2000/svg" xmlns:xlink="http://www.w3.org/1999/xlink">
    <!-- Generator: Sketch 43.2 (39069) - http://www.bohemiancoding.com/sketch -->
    <title>S7 logo</title>
    <desc>Created with Sketch.</desc>
    <defs></defs>
    <g id="Page-1" stroke="none" stroke-width="1" fill="none" fill-rule="evenodd">
        <g id="Mobile-Portrait" transform="translate(-10.000000, -10.000000)" fill-rule="nonzero">
            <g id="Group-4" transform="translate(10.000000, 10.000000)">
                <g id="S7-logo">
                    <path d="M48.9075211,24.5330105 C48.9075211,37.9952877 37.9668908,48.8958105 24.4611796,48.8958105 C10.953743,48.8958105 0,37.9952877 0,24.5330105 C0,11.0707333 10.953743,0.159722807 24.4611796,0.159722807 C37.9670634,0.159722807 48.9075211,11.0707333 48.9075211,24.5330105" id="Shape" fill="#BED600"></path>
                    <path d="M22.6792359,11.813814 C18.8273873,11.813814 16.3285599,12.0259754 14.5197007,12.6951263 C11.4799754,13.8750807 9.38073944,16.3481193 9.38073944,19.5981088 C9.38073944,22.3049719 10.6455951,24.2653158 14.3061021,26.5200035 C18.2117817,28.8793965 18.9909507,29.6590982 18.9909507,31.080786 C18.9909507,32.6367509 17.461081,34.4078 13.5246901,34.4078 C12.1507923,34.4078 10.0814049,34.2183333 8.75909507,33.8959649 L8.1281338,33.7374456 C7.77616197,34.6777298 6.97715141,36.901986 6.73353169,37.7090246 L7.35828169,37.8921298 C8.54773944,38.2702035 11.370588,38.565407 13.3930458,38.565407 C20.1210563,38.565407 24.1352606,34.5149123 24.1352606,30.2734035 C24.1352606,27.6671193 22.9480458,25.6863158 18.9347042,23.1909263 C16.9215634,21.956986 15.895669,21.1568246 15.2726444,20.5373614 C14.7676338,19.8907333 14.7117324,19.4095018 14.7117324,18.9011053 C14.7117324,18.4157474 14.8200845,17.8564596 15.1411725,17.4467509 C15.4884859,16.9402456 16.1254859,16.6175333 16.9876444,16.351214 C17.8737852,16.0582456 19.5156303,16.0505088 22.0727746,16.0505088 L24.4537606,16.0505088 L26.1539225,11.813986 L22.6792359,11.813986 L22.6792359,11.813814 Z M40.6731056,11.813814 L28.7083063,11.813814 L27.0079718,16.0501649 L30.9738662,16.0501649 C33.6424683,16.0501649 34.1557606,15.9929123 34.8258873,15.9929123 C33.8584824,18.1982561 28.028,33.0038211 28.028,33.0038211 L32.962507,33.0038211 C32.962507,33.0038211 40.3442535,14.5734596 41.1265282,12.6411404 C41.3432324,12.2099404 41.2355704,11.813814 40.6731056,11.813814 Z" id="Shape" fill="#FFFFFF"></path>
                </g>
            </g>
        </g>
    </g>
</svg>